<svg width="31" height="36" viewBox="0 0 31 36" fill="none" xmlns="http://www.w3.org/2000/svg">
<path d="M9.1175 14.1507C9.0825 14.1507 9.0475 14.1507 9.0125 14.1157C7.84 12.5407 7.5425 9.84566 7.455 8.81316C7.455 8.62066 7.2275 8.49816 7.0525 8.60316C3.3775 10.6507 0 15.5157 0 20.2057C0 28.2557 5.6 35.0107 15.225 35.0107C24.2375 35.0107 30.45 28.0457 30.45 20.2057C30.45 9.93316 23.1 3.10816 16.5725 0.0281565C16.5344 0.00722541 16.4912 -0.00237246 16.4478 0.000497093C16.4045 0.00336664 16.3629 0.0185835 16.3279 0.0443497C16.2929 0.0701159 16.2661 0.105354 16.2505 0.1459C16.2349 0.186446 16.2313 0.230604 16.24 0.273157C17.08 5.80316 15.925 11.8232 9.1175 14.1507Z" fill="url(#paint0_linear_102_47)"/>
<defs>
<linearGradient id="paint0_linear_102_47" x1="2.91" y1="3.11065" x2="24.15" y2="30.1107" gradientUnits="userSpaceOnUse">
<stop stop-color="#FF3863"/>
<stop offset="1" stop-color="#FF5E51"/>
</linearGradient>
</defs>
</svg>
